<svg width="651" height="174" viewBox="0 0 651 174" fill="none" xmlns="http://www.w3.org/2000/svg">
<path d="M169.961 108.896C171.065 108.896 171.857 109.136 172.337 109.616C172.865 110.096 173.129 110.72 173.129 111.488C173.129 112.736 172.745 113.84 171.977 114.8C171.257 115.76 170.105 116.264 168.521 116.312C164.729 116.36 161.321 116.072 158.297 115.448C154.937 122.6 150.881 128.552 146.129 133.304C141.425 138.008 136.769 140.36 132.161 140.36C127.937 140.36 124.769 138.128 122.657 133.664C120.545 129.152 119.345 123.128 119.057 115.592C116.177 123.944 112.913 130.16 109.265 134.24C105.665 138.32 101.825 140.36 97.7449 140.36C93.1369 140.36 89.6569 137.504 87.3048 131.792C84.9529 126.032 83.7769 118.304 83.7769 108.608C83.7769 101.552 84.4009 93.8 85.6488 85.352C85.9849 82.952 86.5849 81.296 87.4489 80.384C88.3609 79.424 89.7769 78.944 91.6969 78.944C93.1369 78.944 94.2409 79.256 95.0089 79.88C95.8249 80.504 96.2328 81.656 96.2328 83.336C96.2328 83.672 96.1849 84.32 96.0889 85.28C94.6489 95.12 93.9289 103.496 93.9289 110.408C93.9289 116.84 94.4809 121.808 95.5849 125.312C96.6889 128.816 98.1769 130.568 100.049 130.568C101.729 130.568 103.745 128.816 106.097 125.312C108.497 121.76 110.873 116.528 113.225 109.616C115.577 102.656 117.569 94.376 119.201 84.776C119.585 82.568 120.281 81.056 121.289 80.24C122.345 79.376 123.761 78.944 125.537 78.944C127.025 78.944 128.105 79.28 128.777 79.952C129.497 80.576 129.857 81.536 129.857 82.832C129.857 83.6 129.809 84.2 129.713 84.632C128.369 92.456 127.697 100.28 127.697 108.104C127.697 113.432 127.865 117.68 128.201 120.848C128.585 124.016 129.281 126.44 130.289 128.12C131.345 129.752 132.857 130.568 134.825 130.568C137.129 130.568 139.697 128.84 142.529 125.384C145.361 121.88 147.953 117.536 150.305 112.352C147.377 110.528 145.169 108.176 143.681 105.296C142.193 102.368 141.449 99.008 141.449 95.216C141.449 91.424 142.025 88.232 143.177 85.64C144.377 83 145.985 81.032 148.001 79.736C150.065 78.44 152.345 77.792 154.841 77.792C157.913 77.792 160.337 78.896 162.113 81.104C163.937 83.312 164.849 86.336 164.849 90.176C164.849 95.6 163.673 101.624 161.321 108.248C163.769 108.68 166.649 108.896 169.961 108.896ZM148.721 94.712C148.721 99.416 150.233 102.896 153.257 105.152C155.129 99.776 156.065 95.336 156.065 91.832C156.065 89.816 155.801 88.352 155.273 87.44C154.745 86.48 154.025 86 153.113 86C151.817 86 150.761 86.768 149.945 88.304C149.129 89.792 148.721 91.928 148.721 94.712ZM173.803 140.36C170.827 140.36 168.451 139.28 166.675 137.12C164.899 134.96 164.011 132.128 164.011 128.624C164.011 124.784 164.899 121.16 166.675 117.752C168.451 114.296 170.803 111.536 173.731 109.472C176.707 107.36 179.851 106.304 183.163 106.304C184.219 106.304 184.915 106.52 185.251 106.952C185.635 107.336 185.947 108.056 186.187 109.112C187.195 108.92 188.251 108.824 189.355 108.824C191.707 108.824 192.883 109.664 192.883 111.344C192.883 112.352 192.523 114.752 191.803 118.544C190.699 124.064 190.147 127.904 190.147 130.064C190.147 130.784 190.315 131.36 190.651 131.792C191.035 132.224 191.515 132.44 192.091 132.44C193.003 132.44 194.107 131.864 195.403 130.712C196.699 129.512 198.451 127.592 200.659 124.952C201.235 124.28 201.883 123.944 202.603 123.944C203.227 123.944 203.707 124.232 204.043 124.808C204.427 125.384 204.619 126.176 204.619 127.184C204.619 129.104 204.163 130.592 203.251 131.648C201.283 134.096 199.195 136.16 196.987 137.84C194.779 139.52 192.643 140.36 190.579 140.36C188.995 140.36 187.531 139.832 186.187 138.776C184.891 137.672 183.907 136.184 183.235 134.312C180.739 138.344 177.595 140.36 173.803 140.36ZM176.395 133.088C177.451 133.088 178.459 132.464 179.419 131.216C180.379 129.968 181.075 128.312 181.507 126.248L184.171 113C182.155 113.048 180.283 113.816 178.555 115.304C176.875 116.744 175.531 118.664 174.523 121.064C173.515 123.464 173.011 126.008 173.011 128.696C173.011 130.184 173.299 131.288 173.875 132.008C174.499 132.728 175.339 133.088 176.395 133.088ZM205.58 140.36C203.756 140.36 202.46 139.4 201.692 137.48C200.972 135.56 200.612 132.488 200.612 128.264C200.612 122.024 201.5 116.096 203.276 110.48C203.708 109.088 204.404 108.08 205.364 107.456C206.372 106.784 207.764 106.448 209.54 106.448C210.5 106.448 211.172 106.568 211.556 106.808C211.94 107.048 212.132 107.504 212.132 108.176C212.132 108.944 211.772 110.672 211.052 113.36C210.572 115.28 210.188 116.96 209.9 118.4C209.612 119.84 209.372 121.616 209.18 123.728C210.764 119.6 212.54 116.24 214.508 113.648C216.476 111.056 218.396 109.208 220.268 108.104C222.188 107 223.94 106.448 225.524 106.448C228.644 106.448 230.204 108.008 230.204 111.128C230.204 113 229.676 116.384 228.62 121.28C227.708 125.456 227.252 128.216 227.252 129.56C227.252 131.48 227.948 132.44 229.34 132.44C230.3 132.44 231.428 131.864 232.724 130.712C234.068 129.512 235.844 127.592 238.052 124.952C238.628 124.28 239.276 123.944 239.996 123.944C240.62 123.944 241.1 124.232 241.436 124.808C241.82 125.384 242.012 126.176 242.012 127.184C242.012 129.104 241.556 130.592 240.644 131.648C238.58 134.192 236.348 136.28 233.948 137.912C231.596 139.544 228.908 140.36 225.884 140.36C223.436 140.36 221.588 139.664 220.34 138.272C219.092 136.832 218.468 134.768 218.468 132.08C218.468 130.736 218.804 128.336 219.476 124.88C220.1 121.856 220.412 119.768 220.412 118.616C220.412 117.848 220.148 117.464 219.62 117.464C218.996 117.464 218.108 118.28 216.956 119.912C215.852 121.496 214.7 123.608 213.5 126.248C212.348 128.888 211.412 131.672 210.692 134.6C210.164 136.856 209.54 138.392 208.82 139.208C208.148 139.976 207.068 140.36 205.58 140.36ZM278.782 123.944C279.406 123.944 279.886 124.232 280.222 124.808C280.606 125.384 280.798 126.176 280.798 127.184C280.798 129.104 280.342 130.592 279.43 131.648C277.462 134.048 275.302 136.112 272.95 137.84C270.598 139.52 268.27 140.36 265.966 140.36C262.318 140.36 259.534 138.224 257.614 133.952C255.598 136.496 253.822 138.2 252.286 139.064C250.798 139.928 249.046 140.36 247.03 140.36C244.102 140.36 241.678 139.28 239.758 137.12C237.886 134.912 236.95 132.056 236.95 128.552C236.95 124.712 237.766 121.16 239.398 117.896C241.03 114.584 243.262 111.896 246.094 109.832C248.974 107.72 252.19 106.472 255.742 106.088C256.654 96.776 258.382 88.832 260.926 82.256C263.518 75.632 266.902 72.32 271.078 72.32C273.142 72.32 274.846 73.256 276.19 75.128C277.582 77 278.278 79.832 278.278 83.624C278.278 89 276.958 95.288 274.318 102.488C271.678 109.688 268.15 117.08 263.734 124.664C263.926 127.448 264.334 129.44 264.958 130.64C265.63 131.84 266.47 132.44 267.478 132.44C268.774 132.44 270.094 131.864 271.438 130.712C272.782 129.56 274.582 127.64 276.838 124.952C277.414 124.28 278.062 123.944 278.782 123.944ZM270.286 79.376C269.374 79.376 268.462 81.008 267.55 84.272C266.638 87.488 265.846 91.712 265.174 96.944C264.55 102.176 264.094 107.648 263.806 113.36C269.182 101.648 271.87 92.24 271.87 85.136C271.87 83.312 271.702 81.896 271.366 80.888C271.078 79.88 270.718 79.376 270.286 79.376ZM249.55 133.088C250.462 133.088 251.374 132.728 252.286 132.008C253.198 131.24 254.35 129.848 255.742 127.832C255.262 125.24 255.022 122.336 255.022 119.12C255.022 117.968 255.07 116.096 255.166 113.504C252.526 114.32 250.318 116.096 248.542 118.832C246.814 121.52 245.95 124.52 245.95 127.832C245.95 131.336 247.15 133.088 249.55 133.088ZM308.753 123.944C309.377 123.944 309.857 124.232 310.193 124.808C310.577 125.384 310.769 126.176 310.769 127.184C310.769 129.104 310.313 130.592 309.401 131.648C307.625 133.808 305.105 135.8 301.841 137.624C298.625 139.448 295.169 140.36 291.473 140.36C286.433 140.36 282.521 138.992 279.737 136.256C276.953 133.52 275.561 129.776 275.561 125.024C275.561 121.712 276.257 118.64 277.649 115.808C279.041 112.928 280.961 110.648 283.409 108.968C285.905 107.288 288.713 106.448 291.833 106.448C294.617 106.448 296.849 107.288 298.529 108.968C300.209 110.6 301.049 112.832 301.049 115.664C301.049 118.976 299.849 121.832 297.449 124.232C295.097 126.584 291.089 128.456 285.425 129.848C286.625 132.056 288.905 133.16 292.265 133.16C294.425 133.16 296.873 132.416 299.609 130.928C302.393 129.392 304.793 127.4 306.809 124.952C307.385 124.28 308.033 123.944 308.753 123.944ZM290.609 113.504C288.833 113.504 287.321 114.536 286.073 116.6C284.873 118.664 284.273 121.16 284.273 124.088V124.232C287.105 123.56 289.337 122.552 290.969 121.208C292.601 119.864 293.417 118.304 293.417 116.528C293.417 115.616 293.153 114.896 292.625 114.368C292.145 113.792 291.473 113.504 290.609 113.504ZM311.719 140.36C309.895 140.36 308.599 139.4 307.831 137.48C307.111 135.56 306.751 132.488 306.751 128.264C306.751 122.024 307.639 116.096 309.415 110.48C309.847 109.088 310.543 108.08 311.503 107.456C312.511 106.784 313.903 106.448 315.679 106.448C316.639 106.448 317.311 106.568 317.695 106.808C318.079 107.048 318.271 107.504 318.271 108.176C318.271 108.944 317.911 110.672 317.191 113.36C316.711 115.28 316.327 116.96 316.039 118.4C315.751 119.84 315.511 121.616 315.319 123.728C316.903 119.6 318.679 116.24 320.647 113.648C322.615 111.056 324.535 109.208 326.407 108.104C328.327 107 330.079 106.448 331.663 106.448C334.783 106.448 336.343 108.008 336.343 111.128C336.343 111.752 336.127 113.264 335.695 115.664C335.311 117.584 335.119 118.784 335.119 119.264C335.119 120.944 335.719 121.784 336.919 121.784C338.263 121.784 339.991 120.728 342.103 118.616C342.727 117.992 343.375 117.68 344.047 117.68C344.671 117.68 345.151 117.968 345.487 118.544C345.871 119.072 346.063 119.792 346.063 120.704C346.063 122.48 345.583 123.872 344.623 124.88C343.279 126.272 341.695 127.472 339.871 128.48C338.095 129.44 336.199 129.92 334.183 129.92C331.639 129.92 329.695 129.272 328.351 127.976C327.055 126.68 326.407 124.928 326.407 122.72C326.407 122 326.479 121.28 326.623 120.56C326.719 119.6 326.767 118.952 326.767 118.616C326.767 117.848 326.503 117.464 325.975 117.464C325.255 117.464 324.295 118.28 323.095 119.912C321.943 121.496 320.791 123.608 319.639 126.248C318.487 128.888 317.551 131.672 316.831 134.6C316.303 136.856 315.679 138.392 314.959 139.208C314.287 139.976 313.207 140.36 311.719 140.36ZM373.184 123.944C373.808 123.944 374.288 124.232 374.624 124.808C375.008 125.384 375.2 126.176 375.2 127.184C375.2 129.104 374.744 130.592 373.832 131.648C372.056 133.808 369.536 135.8 366.272 137.624C363.056 139.448 359.6 140.36 355.904 140.36C350.864 140.36 346.952 138.992 344.168 136.256C341.384 133.52 339.992 129.776 339.992 125.024C339.992 121.712 340.688 118.64 342.08 115.808C343.472 112.928 345.392 110.648 347.84 108.968C350.336 107.288 353.144 106.448 356.264 106.448C359.048 106.448 361.28 107.288 362.96 108.968C364.64 110.6 365.48 112.832 365.48 115.664C365.48 118.976 364.28 121.832 361.88 124.232C359.528 126.584 355.52 128.456 349.856 129.848C351.056 132.056 353.336 133.16 356.696 133.16C358.856 133.16 361.304 132.416 364.04 130.928C366.824 129.392 369.224 127.4 371.24 124.952C371.816 124.28 372.464 123.944 373.184 123.944ZM355.04 113.504C353.264 113.504 351.752 114.536 350.504 116.6C349.304 118.664 348.704 121.16 348.704 124.088V124.232C351.536 123.56 353.768 122.552 355.4 121.208C357.032 119.864 357.848 118.304 357.848 116.528C357.848 115.616 357.584 114.896 357.056 114.368C356.576 113.792 355.904 113.504 355.04 113.504ZM400.126 116.312C401.182 116.312 402.07 116.696 402.79 117.464C403.558 118.184 403.942 119.096 403.942 120.2C403.942 120.824 403.798 121.496 403.51 122.216C402.742 123.992 401.662 125.48 400.27 126.68C398.878 127.88 397.342 128.48 395.662 128.48C394.318 128.48 393.166 128 392.206 127.04C391.294 126.08 390.838 124.784 390.838 123.152C390.838 122.24 390.886 121.256 390.982 120.2C391.078 119.432 391.126 118.904 391.126 118.616C391.126 118.232 391.03 117.944 390.838 117.752C390.694 117.56 390.502 117.464 390.262 117.464C389.59 117.464 388.678 118.28 387.526 119.912C386.374 121.496 385.222 123.608 384.07 126.248C382.918 128.888 381.982 131.672 381.262 134.6C380.734 136.904 380.134 138.44 379.462 139.208C378.79 139.976 377.686 140.36 376.15 140.36C374.326 140.36 373.03 139.4 372.262 137.48C371.542 135.56 371.182 132.488 371.182 128.264C371.182 122.024 372.07 116.096 373.846 110.48C374.278 109.088 374.974 108.08 375.934 107.456C376.942 106.784 378.334 106.448 380.11 106.448C381.07 106.448 381.742 106.568 382.126 106.808C382.51 107.048 382.702 107.504 382.702 108.176C382.702 108.944 382.342 110.672 381.622 113.36C381.142 115.28 380.758 116.96 380.47 118.4C380.182 119.84 379.942 121.616 379.75 123.728C381.334 119.6 383.11 116.24 385.078 113.648C387.046 111.056 388.966 109.208 390.838 108.104C392.71 107 394.414 106.448 395.95 106.448C397.342 106.448 398.398 106.856 399.118 107.672C399.886 108.44 400.27 109.592 400.27 111.128C400.27 112.04 400.006 113.768 399.478 116.312H400.126ZM488.181 93.92C488.181 98 486.741 101.528 483.861 104.504C480.981 107.432 476.781 109.544 471.261 110.84C474.237 111.656 476.493 113 478.029 114.872C479.565 116.696 480.333 118.808 480.333 121.208C480.333 125 479.133 128.288 476.733 131.072C474.381 133.856 470.925 136.016 466.365 137.552C461.805 139.04 456.309 139.784 449.877 139.784C447.477 139.784 445.557 139.712 444.117 139.568C444.069 140.912 443.493 141.92 442.389 142.592C441.285 143.264 439.869 143.6 438.141 143.6C436.413 143.6 435.213 143.216 434.541 142.448C433.917 141.68 433.653 140.552 433.749 139.064C434.181 132.344 435.021 125.312 436.269 117.968C437.517 110.576 439.101 103.448 441.021 96.584C441.357 95.384 442.029 94.544 443.037 94.064C444.045 93.584 445.365 93.344 446.997 93.344C449.925 93.344 451.389 94.16 451.389 95.792C451.389 96.464 451.245 97.232 450.957 98.096C449.709 101.84 448.461 106.928 447.213 113.36C445.965 119.744 445.077 125.84 444.549 131.648C446.853 131.84 448.725 131.936 450.165 131.936C456.885 131.936 461.805 130.976 464.925 129.056C468.093 127.088 469.677 124.592 469.677 121.568C469.677 119.456 468.765 117.68 466.941 116.24C465.165 114.8 462.165 114.008 457.941 113.864C456.981 113.816 456.309 113.576 455.925 113.144C455.541 112.712 455.349 112.016 455.349 111.056C455.349 109.664 455.637 108.536 456.213 107.672C456.789 106.808 457.845 106.352 459.381 106.304C462.789 106.208 465.861 105.704 468.597 104.792C471.381 103.88 473.565 102.608 475.149 100.976C476.733 99.296 477.525 97.352 477.525 95.144C477.525 92.36 476.157 90.176 473.421 88.592C470.685 86.96 466.485 86.144 460.821 86.144C455.685 86.144 450.717 86.816 445.917 88.16C441.117 89.456 437.037 91.112 433.677 93.128C432.141 94.04 430.845 94.496 429.789 94.496C428.925 94.496 428.253 94.208 427.773 93.632C427.341 93.008 427.125 92.24 427.125 91.328C427.125 90.128 427.365 89.096 427.845 88.232C428.373 87.368 429.597 86.384 431.517 85.28C435.549 82.976 440.277 81.176 445.701 79.88C451.125 78.584 456.669 77.936 462.333 77.936C471.021 77.936 477.501 79.4 481.773 82.328C486.045 85.256 488.181 89.12 488.181 93.92ZM496.334 140.36C494.174 140.36 492.398 139.376 491.006 137.408C489.662 135.392 488.99 132.896 488.99 129.92C488.99 126.32 489.23 123.032 489.71 120.056C490.19 117.032 490.982 113.84 492.086 110.48C492.566 109.04 493.238 108.008 494.102 107.384C494.966 106.76 496.334 106.448 498.206 106.448C499.262 106.448 499.982 106.616 500.366 106.952C500.798 107.288 501.014 107.792 501.014 108.464C501.014 108.848 500.75 110.144 500.222 112.352C499.742 114.128 499.358 115.736 499.07 117.176C498.11 122.216 497.63 125.576 497.63 127.256C497.63 128.264 497.75 128.984 497.99 129.416C498.23 129.8 498.614 129.992 499.142 129.992C499.862 129.992 500.75 129.272 501.806 127.832C502.91 126.392 504.062 124.208 505.262 121.28C506.51 118.352 507.71 114.752 508.862 110.48C509.246 109.04 509.822 108.008 510.59 107.384C511.406 106.76 512.606 106.448 514.19 106.448C515.294 106.448 516.062 106.592 516.494 106.88C516.926 107.12 517.142 107.6 517.142 108.32C517.142 109.52 516.542 112.808 515.342 118.184C513.998 124.328 513.326 128.12 513.326 129.56C513.326 130.472 513.518 131.192 513.902 131.72C514.286 132.2 514.79 132.44 515.414 132.44C516.374 132.44 517.502 131.864 518.798 130.712C520.142 129.512 521.918 127.592 524.126 124.952C524.702 124.28 525.35 123.944 526.07 123.944C526.694 123.944 527.174 124.232 527.51 124.808C527.894 125.384 528.086 126.176 528.086 127.184C528.086 129.104 527.63 130.592 526.718 131.648C524.654 134.192 522.422 136.28 520.022 137.912C517.67 139.544 514.982 140.36 511.958 140.36C509.654 140.36 507.95 139.472 506.846 137.696C505.79 135.92 505.262 133.424 505.262 130.208C504.446 133.472 503.222 135.992 501.59 137.768C499.958 139.496 498.206 140.36 496.334 140.36ZM537.699 140.36C532.995 140.36 529.323 139.04 526.683 136.4C524.091 133.712 522.795 130.184 522.795 125.816C522.795 121.928 523.563 118.52 525.099 115.592C526.635 112.664 528.627 110.408 531.075 108.824C533.523 107.24 536.091 106.448 538.779 106.448C541.419 106.448 543.459 107.24 544.899 108.824C546.387 110.36 547.131 112.352 547.131 114.8C547.131 116.816 546.675 118.52 545.763 119.912C544.899 121.304 543.747 122 542.307 122C541.395 122 540.651 121.784 540.075 121.352C539.547 120.92 539.283 120.32 539.283 119.552C539.283 119.216 539.331 118.832 539.427 118.4C539.523 117.968 539.595 117.656 539.643 117.464C539.883 116.744 540.003 116.072 540.003 115.448C540.003 114.824 539.835 114.344 539.499 114.008C539.211 113.672 538.779 113.504 538.203 113.504C537.099 113.504 536.067 114.008 535.107 115.016C534.147 115.976 533.379 117.296 532.803 118.976C532.227 120.656 531.939 122.504 531.939 124.52C531.939 130.088 534.363 132.872 539.211 132.872C541.179 132.872 543.291 132.224 545.547 130.928C547.851 129.584 550.107 127.592 552.315 124.952C552.891 124.28 553.539 123.944 554.259 123.944C554.883 123.944 555.363 124.232 555.699 124.808C556.083 125.384 556.275 126.176 556.275 127.184C556.275 129.008 555.819 130.496 554.907 131.648C552.651 134.432 549.939 136.592 546.771 138.128C543.651 139.616 540.627 140.36 537.699 140.36ZM593.771 123.944C594.395 123.944 594.875 124.232 595.211 124.808C595.595 125.384 595.787 126.176 595.787 127.184C595.787 129.104 595.331 130.592 594.419 131.648C592.259 134.288 590.075 136.4 587.867 137.984C585.659 139.568 583.043 140.36 580.019 140.36C576.323 140.36 573.347 139.304 571.091 137.192C568.835 135.08 567.707 132.272 567.707 128.768C567.707 126.896 568.667 125.552 570.587 124.736C572.699 123.824 574.211 122.864 575.123 121.856C576.035 120.8 576.491 119.528 576.491 118.04C576.491 117.176 576.299 116.528 575.915 116.096C575.579 115.664 575.147 115.448 574.619 115.448C573.323 115.448 571.883 116.384 570.299 118.256C568.763 120.128 567.323 122.552 565.979 125.528C564.635 128.456 563.579 131.48 562.811 134.6C562.283 136.856 561.659 138.392 560.939 139.208C560.267 139.976 559.187 140.36 557.699 140.36C556.211 140.36 555.107 139.832 554.387 138.776C553.715 137.672 553.259 135.992 553.019 133.736C552.779 131.48 552.659 128.168 552.659 123.8C552.659 116.408 553.403 108.704 554.891 100.688C556.427 92.672 558.659 85.952 561.587 80.528C564.563 75.056 568.115 72.32 572.243 72.32C574.451 72.32 576.227 73.28 577.571 75.2C578.963 77.072 579.659 79.52 579.659 82.544C579.659 87.392 578.243 92.432 575.411 97.664C572.579 102.848 567.971 108.92 561.587 115.88C561.443 118.376 561.371 120.944 561.371 123.584C563.675 117.584 566.315 113.24 569.291 110.552C572.267 107.816 575.051 106.448 577.643 106.448C580.043 106.448 581.963 107.264 583.403 108.896C584.891 110.528 585.635 112.544 585.635 114.944C585.635 117.584 584.963 120.008 583.619 122.216C582.275 124.424 579.971 126.392 576.707 128.12C576.899 129.416 577.475 130.472 578.435 131.288C579.443 132.056 580.643 132.44 582.035 132.44C583.523 132.44 584.963 131.864 586.355 130.712C587.747 129.56 589.571 127.64 591.827 124.952C592.403 124.28 593.051 123.944 593.771 123.944ZM570.731 79.448C569.867 79.448 568.907 80.696 567.851 83.192C566.795 85.64 565.763 88.976 564.755 93.2C563.795 97.376 563.003 101.936 562.379 106.88C565.355 103.376 567.803 99.56 569.723 95.432C571.691 91.304 572.675 87.56 572.675 84.2C572.675 82.664 572.507 81.488 572.171 80.672C571.835 79.856 571.355 79.448 570.731 79.448ZM623.795 123.944C624.419 123.944 624.899 124.232 625.235 124.808C625.619 125.384 625.811 126.176 625.811 127.184C625.811 129.104 625.355 130.592 624.443 131.648C622.667 133.808 620.147 135.8 616.883 137.624C613.667 139.448 610.211 140.36 606.515 140.36C601.475 140.36 597.563 138.992 594.779 136.256C591.995 133.52 590.603 129.776 590.603 125.024C590.603 121.712 591.299 118.64 592.691 115.808C594.083 112.928 596.003 110.648 598.451 108.968C600.947 107.288 603.755 106.448 606.875 106.448C609.659 106.448 611.891 107.288 613.571 108.968C615.251 110.6 616.091 112.832 616.091 115.664C616.091 118.976 614.891 121.832 612.491 124.232C610.139 126.584 606.131 128.456 600.467 129.848C601.667 132.056 603.947 133.16 607.307 133.16C609.467 133.16 611.915 132.416 614.651 130.928C617.435 129.392 619.835 127.4 621.851 124.952C622.427 124.28 623.075 123.944 623.795 123.944ZM605.651 113.504C603.875 113.504 602.363 114.536 601.115 116.6C599.915 118.664 599.315 121.16 599.315 124.088V124.232C602.147 123.56 604.379 122.552 606.011 121.208C607.643 119.864 608.459 118.304 608.459 116.528C608.459 115.616 608.195 114.896 607.667 114.368C607.187 113.792 606.515 113.504 605.651 113.504ZM633.529 113.288C633.433 115.688 633.385 117.56 633.385 118.904C633.385 122.36 633.553 125.072 633.889 127.04C634.273 128.96 634.873 130.352 635.689 131.216C636.553 132.032 637.729 132.44 639.217 132.44C639.985 132.44 640.897 132.2 641.953 131.72C643.009 131.24 643.969 130.616 644.833 129.848C645.361 129.368 645.889 129.128 646.417 129.128C646.993 129.128 647.449 129.464 647.785 130.136C648.169 130.76 648.361 131.528 648.361 132.44C648.361 133.352 648.169 134.24 647.785 135.104C647.449 135.968 646.921 136.688 646.201 137.264C643.705 139.328 640.873 140.36 637.705 140.36C633.145 140.36 629.809 138.464 627.697 134.672C625.585 130.832 624.529 125.84 624.529 119.696C624.529 117.584 624.601 115.448 624.745 113.288H621.937C620.497 113.288 619.513 113.024 618.985 112.496C618.505 111.968 618.265 111.128 618.265 109.976C618.265 107.288 619.345 105.944 621.505 105.944H625.609C626.425 100.664 627.673 95.84 629.353 91.472C631.033 87.104 633.049 83.624 635.401 81.032C637.801 78.44 640.369 77.144 643.105 77.144C645.121 77.144 646.705 78.032 647.857 79.808C649.009 81.584 649.585 83.816 649.585 86.504C649.585 93.944 646.465 100.424 640.225 105.944H648.289C649.057 105.944 649.609 106.112 649.945 106.448C650.281 106.784 650.449 107.408 650.449 108.32C650.449 111.632 647.737 113.288 642.313 113.288H633.529ZM641.161 84.056C640.441 84.056 639.625 84.968 638.713 86.792C637.849 88.568 637.009 91.064 636.193 94.28C635.425 97.448 634.777 100.976 634.249 104.864C637.081 102.416 639.193 99.68 640.585 96.656C642.025 93.584 642.745 90.8 642.745 88.304C642.745 85.472 642.217 84.056 641.161 84.056Z" fill="white"/>
<g filter="url(#filter0_d)">
<rect x="502.853" y="76.5831" width="125.231" height="9" rx="4.5" transform="rotate(37.4703 502.853 76.5831)" fill="#FCFCFC"/>
</g>
<path d="M64.9445 27.1591H74.3941C75.2459 32.3896 74.6603 35.5653 74.261 36.4993H71.466C75.1926 41.0894 75.6806 46.2398 75.4588 48.2413C77.8013 51.6571 79.3629 55.8024 79.8509 57.4481C80.3833 60.01 79.3629 61.2731 78.7861 61.5845V64.6534L77.3221 66.5214C76.4703 67.6956 75.2814 67.2776 74.7934 66.9217L70.4013 64.6534C69.2301 64.5467 69.2922 66.5659 69.4696 67.5889L70.4013 76.6623C70.6142 78.6904 71.0224 78.7527 71.1999 78.5303C72.584 78.637 72.2202 79.9091 71.8653 80.5318L71.1999 83.3338H69.4696C68.5114 83.3338 68.3605 85.7356 68.4049 86.9365H66.8078C67.1272 88.9647 67.2071 98.2782 67.2071 102.681C66.8876 109.193 65.0332 119.005 64.1459 123.097C63.0812 129.074 63.9685 132.526 64.5452 133.504C65.6099 137.881 64.6339 143.956 64.0128 146.447C62.4157 151.998 62.3714 156.143 62.5488 157.522C63.4006 157.629 63.6136 161.036 63.6136 162.726C65.956 163.473 66.6303 165.706 66.6747 166.729H60.0201C55.4417 167.049 54.1196 166.328 54.0309 165.928V162.726C53.0726 160.484 53.8978 158.856 54.4301 158.322C54.9625 157.682 54.9182 157.077 54.8294 156.855C53.5517 155.574 54.2971 154.809 54.8294 154.586C55.1488 153.519 54.6963 151.384 54.4301 150.45C52.9395 145.646 53.0105 141.154 53.2323 139.509C53.6582 136.626 53.4098 133.504 53.2323 132.303C53.1258 130.809 51.6796 127.144 50.9697 125.498C50.3309 123.897 49.3726 117.626 48.9733 114.69C48.1215 118.747 45.9566 123.853 44.9806 125.899C44.1288 128.247 44.0045 131.147 44.0489 132.303C45.0072 139.455 44.4482 145.78 44.0489 148.048C43.623 150.503 43.8714 152.807 44.0489 153.652C45.7525 155.467 45.8235 157.255 45.646 157.922C45.1136 158.776 45.4242 159.701 45.646 160.057L46.3115 166.729C44.5014 167.476 39.1688 167.04 36.7288 166.729L37.5274 163.526C38.1662 160.858 37.2612 157.077 36.7288 155.52L37.5274 155.12C37.2079 151.277 36.3295 147.737 35.9302 146.447C33.6943 141.323 33.4015 136.128 33.5346 134.171C33.854 132.357 33.6677 129.323 33.5346 128.033L31.1389 109.62C29.5418 98.1981 29.8523 90.895 30.2072 88.6711C30.3137 87.3902 28.7432 86.981 27.9447 86.9365C26.1346 85.9758 26.9243 84.1344 27.5454 83.3338C28.1842 82.8001 28.0778 81.4213 27.9447 80.7986C27.3058 79.9447 27.6785 78.13 27.9447 77.3294C29.7547 74.554 30.4734 69.0566 30.6065 66.6549V56.5141C30.5 55.6601 30.3847 55.9803 30.3403 56.2472L27.2792 73.3265L9.44476 87.3368C8.38002 89.4717 7.13781 90.806 6.64981 91.2063C6.43686 91.5266 5.40761 91.6066 4.9196 91.6066V92.4072L12.3728 173L1.99156 92.4072C0.500917 90.806 1.01554 88.0929 1.45919 86.9365C3.0563 84.2679 5.76252 82.978 6.91599 82.6667L16.6318 71.4584C18.2289 62.2783 20.6689 52.5111 21.6893 48.775V43.9715C22.1152 42.5838 24.3512 41.1694 25.4159 40.6357L27.8116 38.3673C28.131 37.2999 29.2756 36.3214 29.808 35.9656H24.085V27.4259H34.7324L34.4662 22.8893C34.4662 22.142 37.5717 21.0657 39.1245 20.6209H41.6532L41.387 18.486C40.7482 17.5253 41.1209 16.6624 41.387 16.3511L41.6532 15.2836C32.39 15.2836 29.8967 14.0383 29.808 13.4156C30.2339 11.9211 37.4386 11.4586 40.9878 11.4141C42.4784 2.7677 47.3762 0.872984 49.6388 1.00643C54.9625 0.89968 57.8018 7.9004 58.556 11.4141C66.5416 11.7343 68.7154 12.8819 68.8042 13.4156C68.5912 14.8033 61.4397 15.2391 57.8906 15.2836V16.0842C58.9553 16.7247 58.7778 19.0197 58.556 20.0872C62.7085 20.4074 63.5692 23.1561 63.4805 24.4904C64.1193 25.2376 64.7227 26.5808 64.9445 27.1591Z" fill="#DAFCD2" stroke="#FCD2D2"/>
<defs>
<filter id="filter0_d" x="489.377" y="68.5831" width="120.867" height="99.3272" filterUnits="userSpaceOnUse" color-interpolation-filters="sRGB">
<feFlood flood-opacity="0" result="BackgroundImageFix"/>
<feColorMatrix in="SourceAlpha" type="matrix" values="0 0 0 0 0 0 0 0 0 0 0 0 0 0 0 0 0 0 127 0"/>
<feOffset/>
<feGaussianBlur stdDeviation="4"/>
<feColorMatrix type="matrix" values="0 0 0 0 0 0 0 0 0 0 0 0 0 0 0 0 0 0 0.25 0"/>
<feBlend mode="normal" in2="BackgroundImageFix" result="effect1_dropShadow"/>
<feBlend mode="normal" in="SourceGraphic" in2="effect1_dropShadow" result="shape"/>
</filter>
</defs>
</svg>
